SplineFontDB: 3.0
FontName: Rokkitt-Thin
FullName: Rokkitt Thin
FamilyName: Rokkitt
Weight: Thin
Copyright: 
Version: 2
ItalicAngle: 0
UnderlinePosition: 0
UnderlineWidth: 0
Ascent: 1638
Descent: 410
sfntRevision: 0x00000000
UFOAscent: 1152
UFODescent: -410
LayerCount: 2
Layer: 0 0 "Back"  1
Layer: 1 0 "Fore"  0
FSType: 0
OS2Version: 0
OS2_WeightWidthSlopeOnly: 0
OS2_UseTypoMetrics: 0
CreationTime: 1391804358
ModificationTime: 1391804431
PfmFamily: 17
TTFWeight: 300
TTFWidth: 5
LineGap: 0
VLineGap: 0
Panose: 2 0 5 3 5 0 0 2 0 3
OS2TypoAscent: 0
OS2TypoAOffset: 1
OS2TypoDescent: 0
OS2TypoDOffset: 1
OS2TypoLinegap: 0
OS2WinAscent: 0
OS2WinAOffset: 1
OS2WinDescent: 0
OS2WinDOffset: 1
HheadAscent: 0
HheadAOffset: 1
HheadDescent: 0
HheadDOffset: 1
OS2SubXSize: 1331
OS2SubYSize: 1228
OS2SubXOff: 0
OS2SubYOff: 153
OS2SupXSize: 1331
OS2SupYSize: 1228
OS2SupXOff: 0
OS2SupYOff: 716
OS2StrikeYSize: 0
OS2StrikeYPos: 501
OS2Vendor: 'NeWT'
Lookup: 6 0 0 "'locl' Localized Forms in Latin lookup 0"  {"'locl' Localized Forms in Latin lookup 0 contextual 0"  "'locl' Localized Forms in Latin lookup 0 contextual 1"  } ['locl' ('latn' <'CAT ' 'dflt' > ) ]
Lookup: 4 0 0 "Ligature Substitution lookup 1"  {"Ligature Substitution lookup 1 subtable"  } []
Lookup: 4 0 0 "Ligature Substitution lookup 2"  {"Ligature Substitution lookup 2 subtable"  } []
Lookup: 1 0 0 "'locl' Localized Forms in Latin lookup 3"  {"'locl' Localized Forms in Latin lookup 3 subtable"  } ['locl' ('latn' <'ROM ' 'dflt' > ) ]
Lookup: 1 0 0 "'locl' Localized Forms in Latin lookup 4"  {"'locl' Localized Forms in Latin lookup 4 subtable"  } ['locl' ('latn' <'MOL ' 'dflt' > ) ]
Lookup: 1 0 0 "'locl' Localized Forms in Latin lookup 5"  {"'locl' Localized Forms in Latin lookup 5 subtable"  } ['locl' ('latn' <'KAZ ' 'dflt' > ) ]
Lookup: 1 0 0 "'locl' Localized Forms in Latin lookup 6"  {"'locl' Localized Forms in Latin lookup 6 subtable"  } ['locl' ('latn' <'TAT ' 'dflt' > ) ]

StartChar: A
Encoding: 65 65 1
Width: 1383
VWidth: 0
Flags: W
PickledData: "(dp1
S'org.robofab.postScriptHintData'
p2
(dp3
sS'com.typemytype.robofont.layerData'
p4
(dp5
S'b'
(dp6
S'name'
p7
S'A'
sS'lib'
p8
(dp9
sS'unicodes'
p10
(tsS'width'
p11
I1383
sS'contours'
p12
(tsS'components'
p13
(tsS'anchors'
p14
(tsss."
AnchorPoint: "ogonek" 1145 0 basechar 0
AnchorPoint: "top" 692 1152 basechar 0
LayerCount: 2
Fore
SplineSet
92 34 m 257
 92 0 l 257
 442 0 l 257
 442 34 l 257
 294 34 l 257
 462 488 l 257
 922 488 l 257
 1090 34 l 257
 941 34 l 257
 941 0 l 257
 1291 0 l 257
 1291 34 l 257
 1136 34 l 257
 732 1118 l 257
 883 1118 l 257
 883 1152 l 257
 505 1152 l 257
 505 1118 l 257
 652 1118 l 257
 247 34 l 257
 92 34 l 257
912 520 m 257
 472 520 l 257
 690 1111 l 257
 693 1111 l 257
 912 520 l 257
EndSplineSet
Substitution2: "Single Substitution lookup 13 subtable" ordfeminine
EndChar

StartChar: AE
Encoding: 198 198 2
Width: 2243
VWidth: 0
Flags: W
PickledData: "(dp1
S'org.robofab.postScriptHintData'
p2
(dp3
sS'com.typemytype.robofont.layerData'
p4
(dp5
S'b'
(dp6
S'name'
p7
S'AE'
p8
sS'lib'
p9
(dp10
sS'unicodes'
p11
(tsS'width'
p12
I2243
sS'contours'
p13
(tsS'components'
p14
(tsS'anchors'
p15
(tsss."
AnchorPoint: "top" 1257 1152 basechar 0
LayerCount: 2
Fore
SplineSet
174 0 m 257
 555 0 l 257
 555 34 l 257
 407 34 l 257
 631 437 l 257
 1121 437 l 257
 1187 34 l 257
 1024 34 l 257
 1024 0 l 257
 2037 0 l 257
 1972 395 l 257
 1933 395 l 257
 1990 34 l 257
 1233 34 l 257
 1150 546 l 257
 1601 546 l 257
 1640 343 l 257
 1678 343 l 257
 1600 759 l 257
 1562 759 l 257
 1594 580 l 257
 1144 580 l 257
 1059 1118 l 257
 1757 1118 l 257
 1815 754 l 257
 1854 754 l 257
 1791 1152 l 257
 821 1152 l 257
 821 1118 l 257
 963 1118 l 257
 354 34 l 257
 174 34 l 257
 174 0 l 257
651 471 m 257
 1006 1118 l 257
 1014 1118 l 257
 1117 471 l 257
 651 471 l 257
EndSplineSet
EndChar

StartChar: B
Encoding: 66 66 19
Width: 1315
VWidth: 0
Flags: W
PickledData: "(dp1
S'org.robofab.postScriptHintData'
p2
(dp3
sS'com.typemytype.robofont.layerData'
p4
(dp5
S'b'
(dp6
S'name'
p7
S'B'
sS'lib'
p8
(dp9
sS'unicodes'
p10
(tsS'width'
p11
I1315
sS'contours'
p12
((dp13
S'points'
p14
((dp15
S'segmentType'
p16
S'line'
p17
sS'x'
I353
sS'smooth'
p18
I0
sS'y'
I1095
s(dp19
g16
S'line'
p20
sS'x'
I740
sg18
I1
sS'y'
I1095
s(dp21
S'y'
I1095
sS'x'
I917
sg18
I0
s(dp22
S'y'
I983
sS'x'
I1004
sg18
I0
s(dp23
g16
S'curve'
p24
sS'x'
I1004
sg18
I1
sS'y'
I868
s(dp25
S'y'
I751
sS'x'
I1004
sg18
I0
s(dp26
S'y'
I634
sS'x'
I928
sg18
I0
s(dp27
g16
S'curve'
p28
sS'x'
I784
sg18
I1
sS'y'
I634
s(dp29
g16
S'line'
p30
sS'x'
I353
sg18
I0
sS'y'
I634
stp31
s(dp32
g14
((dp33
g16
S'line'
p34
sS'x'
I353
sg18
I0
sS'y'
I573
s(dp35
g16
S'line'
p36
sS'x'
I793
sg18
I1
sS'y'
I573
s(dp37
S'y'
I573
sS'x'
I979
sg18
I0
s(dp38
S'y'
I439
sS'x'
I1072
sg18
I0
s(dp39
g16
S'curve'
p40
sS'x'
I1072
sg18
I1
sS'y'
I320
s(dp41
S'y'
I187
sS'x'
I1072
sg18
I0
s(dp42
S'y'
I58
sS'x'
I985
sg18
I0
s(dp43
g16
S'curve'
p44
sS'x'
I807
sg18
I1
sS'y'
I58
s(dp45
g16
S'line'
p46
sS'x'
I353
sg18
I0
sS'y'
I58
stp47
s(dp48
g14
((dp49
g16
S'line'
p50
sS'x'
I807
sg18
I1
sS'y'
I0
s(dp51
S'y'
I0
sS'x'
I1031
sg18
I0
s(dp52
S'y'
I158
sS'x'
I1146
sg18
I0
s(dp53
g16
S'curve'
p54
sS'x'
I1146
sg18
I1
sS'y'
I316
s(dp55
S'y'
I439
sS'x'
I1146
sg18
I0
s(dp56
S'y'
I568
sS'x'
I1074
sg18
I0
s(dp57
g16
S'curve'
p58
sS'x'
I919
sg18
I0
sS'y'
I611
s(dp59
S'y'
I669
sS'x'
I1029
sg18
I0
s(dp60
S'y'
I769
sS'x'
I1079
sg18
I0
s(dp61
g16
S'curve'
p62
sS'x'
I1079
sg18
I1
sS'y'
I870
s(dp63
S'y'
I1012
sS'x'
I1079
sg18
I0
s(dp64
S'y'
I1154
sS'x'
I964
sg18
I0
s(dp65
g16
S'curve'
p66
sS'x'
I740
sg18
I1
sS'y'
I1154
s(dp67
g16
S'line'
p68
sS'x'
I122
sg18
I0
sS'y'
I1154
s(dp69
g16
S'line'
p70
sS'x'
I122
sg18
I0
sS'y'
I1095
s(dp71
g16
S'line'
p72
sS'x'
I278
sg18
I0
sS'y'
I1095
s(dp73
g16
S'line'
p74
sS'x'
I278
sg18
I0
sS'y'
I58
s(dp75
g16
S'line'
p76
sS'x'
I135
sg18
I0
sS'y'
I58
s(dp77
g16
S'line'
p78
sS'x'
I135
sg18
I0
sS'y'
I0
stp79
stp80
sS'components'
p81
(tsS'anchors'
p82
(tsss."
AnchorPoint: "top" 594 1152 basechar 0
LayerCount: 2
Fore
SplineSet
1123 873 m 256
 1123 1060 1007 1152 795 1152 c 258
 130 1152 l 257
 130 1118 l 257
 306 1118 l 257
 306 34 l 257
 130 34 l 257
 130 0 l 257
 897 0 l 258
 1074 0 1195 127 1195 314 c 256
 1195 442 1143 578 949 609 c 257
 1059 628 1123 732 1123 873 c 256
795 1118 m 258
 981 1118 1084 1043 1084 873 c 256
 1084 731 1022 623 864 623 c 258
 350 623 l 257
 350 1118 l 257
 795 1118 l 258
350 34 m 257
 350 589 l 257
 864 589 l 258
 1065 589 1153 467 1153 314 c 256
 1153 146 1050 34 897 34 c 258
 350 34 l 257
EndSplineSet
EndChar

StartChar: C
Encoding: 67 67 21
Width: 1411
VWidth: 0
Flags: W
PickledData: "(dp1
S'org.robofab.postScriptHintData'
p2
(dp3
sS'com.typemytype.robofont.layerData'
p4
(dp5
S'b'
(dp6
S'name'
p7
S'C'
sS'lib'
p8
(dp9
sS'unicodes'
p10
(tsS'width'
p11
I1411
sS'contours'
p12
(tsS'components'
p13
(tsS'anchors'
p14
(tsss."
AnchorPoint: "bot" 721 0 basechar 0
AnchorPoint: "top" 722 1152 basechar 0
LayerCount: 2
Fore
SplineSet
715 -22 m 256
 938 -22 1117 53 1241 245 c 257
 1215 268 l 257
 1096 72 897 14 715 14 c 256
 453 14 166 193 166 580 c 256
 166 867 362 1136 715 1136 c 256
 978 1136 1104 1032 1211 820 c 257
 1243 836 l 257
 1243 1152 l 257
 1197 1152 l 257
 1197 904 l 257
 1108 1070 980 1172 715 1172 c 256
 361 1172 122 908 122 582 c 256
 122 154 449 -22 715 -22 c 256
EndSplineSet
EndChar

StartChar: D
Encoding: 68 68 28
Width: 1434
VWidth: 0
Flags: W
PickledData: "(dp1
S'org.robofab.postScriptHintData'
p2
(dp3
sS'com.typemytype.robofont.layerData'
p4
(dp5
S'b'
(dp6
S'name'
p7
S'D'
sS'lib'
p8
(dp9
sS'unicodes'
p10
(tsS'width'
p11
I1434
sS'contours'
p12
(tsS'components'
p13
(tsS'anchors'
p14
(tsss."
AnchorPoint: "mid" 319 592 basechar 0
AnchorPoint: "top" 656 1152 basechar 0
LayerCount: 2
Fore
SplineSet
130 1152 m 257
 130 1118 l 257
 306 1118 l 257
 306 34 l 257
 130 34 l 257
 130 0 l 257
 832 0 l 258
 1148 0 1306 321 1306 570 c 256
 1306 823 1156 1152 826 1152 c 258
 130 1152 l 257
350 34 m 257
 350 1118 l 257
 828 1118 l 258
 1116 1118 1264 823 1264 570 c 256
 1264 319 1116 34 822 34 c 258
 350 34 l 257
EndSplineSet
EndChar

StartChar: Delta
Encoding: 916 916 33
Width: 1167
VWidth: 0
Flags: W
PickledData: "(dp1
S'org.robofab.postScriptHintData'
p2
(dp3
s."
LayerCount: 2
Fore
SplineSet
84 0 m 257
 1083 0 l 257
 1083 26 l 257
 588 1152 l 257
 542 1152 l 257
 84 26 l 257
 84 0 l 257
129 34 m 257
 563 1117 l 257
 1040 34 l 257
 129 34 l 257
EndSplineSet
EndChar

StartChar: E
Encoding: 69 69 36
Width: 1227
VWidth: 0
Flags: W
PickledData: "(dp1
S'org.robofab.postScriptHintData'
p2
(dp3
sS'com.typemytype.robofont.layerData'
p4
(dp5
S'b'
(dp6
S'name'
p7
S'E'
sS'lib'
p8
(dp9
sS'unicodes'
p10
(tsS'width'
p11
I1227
sS'contours'
p12
(tsS'components'
p13
(tsS'anchors'
p14
(tsss."
AnchorPoint: "bot" 649 0 basechar 0
AnchorPoint: "ogonek" 754 0 basechar 0
AnchorPoint: "top" 676 1152 basechar 0
LayerCount: 2
Fore
SplineSet
1047 332 m 257
 1047 34 l 257
 350 34 l 257
 350 569 l 257
 782 569 l 257
 782 380 l 257
 821 380 l 257
 821 780 l 257
 781 780 l 257
 781 603 l 257
 350 603 l 257
 350 1118 l 257
 1019 1118 l 257
 1019 826 l 257
 1059 826 l 257
 1059 1152 l 257
 130 1152 l 257
 130 1118 l 257
 306 1118 l 257
 306 34 l 257
 130 34 l 257
 130 0 l 257
 1087 0 l 257
 1087 332 l 257
 1047 332 l 257
EndSplineSet
EndChar

StartChar: Eng
Encoding: 330 330 48
Width: 1444
VWidth: 0
Flags: W
PickledData: "(dp1
S'org.robofab.postScriptHintData'
p2
(dp3
s."
LayerCount: 2
Fore
SplineSet
867 -374 m 257
 1100 -374 1238 -261 1238 -17 c 258
 1238 252 l 257
 1194 252 l 257
 1194 -31 l 258
 1194 -220 1091 -340 870 -340 c 257
 867 -374 l 257
EndSplineSet
Refer: 94 78 N 1 0 0 1 0 0 2
EndChar

StartChar: Euro
Encoding: 8364 8364 52
Width: 1408
VWidth: 0
Flags: W
PickledData: "(dp1
S'org.robofab.postScriptHintData'
p2
(dp3
s."
LayerCount: 2
Fore
SplineSet
-25 446 m 257
 602 446 l 257
 628 479 l 257
 1 479 l 257
 -25 446 l 257
-25 636 m 257
 602 636 l 257
 628 669 l 257
 1 669 l 257
 -25 636 l 257
EndSplineSet
Refer: 21 67 N 1 0 0 1 0 0 2
EndChar

StartChar: F
Encoding: 70 70 53
Width: 1177
VWidth: 0
Flags: W
PickledData: "(dp1
S'org.robofab.postScriptHintData'
p2
(dp3
sS'com.typemytype.robofont.layerData'
p4
(dp5
S'b'
(dp6
S'name'
p7
S'F'
sS'lib'
p8
(dp9
sS'unicodes'
p10
(tsS'width'
p11
I1177
sS'contours'
p12
((dp13
S'points'
p14
((dp15
S'segmentType'
p16
S'line'
p17
sS'x'
I990
sS'smooth'
p18
I0
sS'y'
I1086
s(dp19
g16
S'line'
p20
sS'x'
I990
sg18
I0
sS'y'
I802
s(dp21
g16
S'line'
p22
sS'x'
I1062
sg18
I0
sS'y'
I802
s(dp23
g16
S'line'
p24
sS'x'
I1062
sg18
I0
sS'y'
I1152
s(dp25
g16
S'line'
p26
sS'x'
I122
sg18
I0
sS'y'
I1152
s(dp27
g16
S'line'
p28
sS'x'
I122
sg18
I0
sS'y'
I1086
s(dp29
g16
S'line'
p30
sS'x'
I286
sg18
I0
sS'y'
I1086
s(dp31
g16
S'line'
p32
sS'x'
I286
sg18
I0
sS'y'
I1039
s(dp33
g16
S'line'
p34
sS'x'
I363
sg18
I0
sS'y'
I1039
s(dp35
g16
S'line'
p36
sS'x'
I363
sg18
I0
sS'y'
I1086
stp37
s(dp38
g14
((dp39
g16
S'line'
p40
sS'x'
I286
sg18
I0
sS'y'
I1039
s(dp41
g16
S'line'
p42
sS'x'
I286
sg18
I0
sS'y'
I677
s(dp43
g16
S'line'
p44
sS'x'
I363
sg18
I0
sS'y'
I677
s(dp45
g16
S'line'
p46
sS'x'
I363
sg18
I0
sS'y'
I1039
stp47
s(dp48
g14
((dp49
g16
S'line'
p50
sS'x'
I286
sg18
I0
sS'y'
I677
s(dp51
g16
S'line'
p52
sS'x'
I286
sg18
I0
sS'y'
I65
s(dp53
g16
S'line'
p54
sS'x'
I122
sg18
I0
sS'y'
I65
s(dp55
g16
S'line'
p56
sS'x'
I122
sg18
I0
sS'y'
I0
s(dp57
g16
S'line'
p58
sS'x'
I552
sg18
I0
sS'y'
I0
s(dp59
g16
S'line'
p60
sS'x'
I552
sg18
I0
sS'y'
I65
s(dp61
g16
S'line'
p62
sS'x'
I363
sg18
I0
sS'y'
I65
s(dp63
g16
S'line'
p64
sS'x'
I363
sg18
I0
sS'y'
I539
s(dp65
g16
S'line'
p66
sS'x'
I824
sg18
I0
sS'y'
I539
s(dp67
g16
S'line'
p68
sS'x'
I824
sg18
I0
sS'y'
I378
s(dp69
g16
S'line'
p70
sS'x'
I886
sg18
I0
sS'y'
I378
s(dp71
g16
S'line'
p72
sS'x'
I886
sg18
I0
sS'y'
I764
s(dp73
g16
S'line'
p74
sS'x'
I824
sg18
I0
sS'y'
I764
s(dp75
g16
S'line'
p76
sS'x'
I824
sg18
I0
sS'y'
I601
s(dp77
g16
S'line'
p78
sS'x'
I363
sg18
I0
sS'y'
I601
s(dp79
g16
S'line'
p80
sS'x'
I363
sg18
I0
sS'y'
I677
stp81
stp82
sS'components'
p83
(tsS'anchors'
p84
(tsss."
AnchorPoint: "top" 649 1152 basechar 0
LayerCount: 2
Fore
SplineSet
130 1152 m 257
 130 1118 l 257
 306 1118 l 257
 306 34 l 257
 130 34 l 257
 130 0 l 257
 526 0 l 257
 526 34 l 257
 350 34 l 257
 350 575 l 257
 851 575 l 257
 851 390 l 257
 887 390 l 257
 887 770 l 257
 851 770 l 257
 851 609 l 257
 350 609 l 257
 350 1118 l 257
 1039 1118 l 257
 1039 796 l 257
 1075 796 l 257
 1075 1152 l 257
 130 1152 l 257
EndSplineSet
EndChar

StartChar: G
Encoding: 71 71 55
Width: 1394
VWidth: 0
Flags: W
PickledData: "(dp1
S'org.robofab.postScriptHintData'
p2
(dp3
sS'com.typemytype.robofont.layerData'
p4
(dp5
S'b'
(dp6
S'name'
p7
S'G'
sS'lib'
p8
(dp9
sS'unicodes'
p10
(tsS'width'
p11
I1394
sS'contours'
p12
(tsS'components'
p13
(tsS'anchors'
p14
(tsss."
AnchorPoint: "bot" 711 0 basechar 0
AnchorPoint: "top" 707 1152 basechar 0
LayerCount: 2
Fore
SplineSet
707 -22 m 256
 897 -22 1245 59 1245 543 c 257
 948 543 l 257
 948 509 l 257
 1203 509 l 257
 1198 110 884 14 707 14 c 256
 372 14 161 233 161 582 c 256
 161 924 372 1138 707 1138 c 256
 913 1138 1091 1034 1169 851 c 257
 1201 851 l 257
 1201 1152 l 257
 1157 1152 l 257
 1157 945 l 257
 1066 1093 892 1174 707 1174 c 256
 346 1174 119 946 119 582 c 256
 119 211 346 -22 707 -22 c 256
EndSplineSet
EndChar

StartChar: H
Encoding: 72 72 62
Width: 1506
VWidth: 0
Flags: W
PickledData: "(dp1
S'org.robofab.postScriptHintData'
p2
(dp3
sS'com.typemytype.robofont.layerData'
p4
(dp5
S'b'
(dp6
S'name'
p7
S'H'
sS'lib'
p8
(dp9
sS'unicodes'
p10
(tsS'width'
p11
I1506
sS'contours'
p12
(tsS'components'
p13
(tsS'anchors'
p14
(tsss."
AnchorPoint: "bot" 752 0 basechar 0
AnchorPoint: "top" 750 1152 basechar 0
LayerCount: 2
Fore
SplineSet
1375 1118 m 257
 1375 1152 l 257
 979 1152 l 257
 979 1118 l 257
 1155 1118 l 257
 1155 598 l 257
 350 598 l 257
 350 1118 l 257
 526 1118 l 257
 526 1152 l 257
 130 1152 l 257
 130 1118 l 257
 306 1118 l 257
 306 34 l 257
 130 34 l 257
 130 0 l 257
 526 0 l 257
 526 34 l 257
 350 34 l 257
 350 564 l 257
 1155 564 l 257
 1155 34 l 257
 979 34 l 257
 979 0 l 257
 1375 0 l 257
 1375 34 l 257
 1199 34 l 257
 1199 1118 l 257
 1375 1118 l 257
EndSplineSet
EndChar

StartChar: Hbar
Encoding: 294 294 63
Width: 1471
VWidth: 0
Flags: W
PickledData: "(dp1
S'org.robofab.postScriptHintData'
p2
(dp3
sS'com.typemytype.robofont.layerData'
p4
(dp5
S'b'
(dp6
S'name'
p7
S'Hbar'
p8
sS'lib'
p9
(dp10
sS'unicodes'
p11
(tsS'width'
p12
I1471
sS'contours'
p13
(tsS'components'
p14
(tsS'anchors'
p15
(tsss."
LayerCount: 2
Fore
SplineSet
151 839 m 257
 1316 839 l 257
 1316 877 l 257
 151 877 l 257
 151 839 l 257
EndSplineSet
Refer: 62 72 N 1 0 0 1 0 0 2
EndChar

StartChar: I
Encoding: 73 73 66
Width: 626
VWidth: 0
Flags: W
PickledData: "(dp1
S'org.robofab.postScriptHintData'
p2
(dp3
sS'com.typemytype.robofont.layerData'
p4
(dp5
S'b'
(dp6
S'name'
p7
S'I'
sS'lib'
p8
(dp9
sS'unicodes'
p10
(tsS'width'
p11
I626
sS'contours'
p12
(tsS'components'
p13
(tsS'anchors'
p14
(tsss."
AnchorPoint: "ogonek" 312 0 basechar 0
AnchorPoint: "top" 316 1152 basechar 0
LayerCount: 2
Fore
SplineSet
114 34 m 257
 114 0 l 257
 510 0 l 257
 510 34 l 257
 334 34 l 257
 334 1118 l 257
 510 1118 l 257
 510 1152 l 257
 114 1152 l 257
 114 1118 l 257
 290 1118 l 257
 290 34 l 257
 114 34 l 257
EndSplineSet
EndChar

StartChar: J
Encoding: 74 74 80
Width: 551
VWidth: 0
Flags: W
PickledData: "(dp1
S'org.robofab.postScriptHintData'
p2
(dp3
sS'com.typemytype.robofont.layerData'
p4
(dp5
S'b'
(dp6
S'name'
p7
S'J'
sS'lib'
p8
(dp9
sS'unicodes'
p10
(tsS'width'
p11
I551
sS'contours'
p12
(tsS'components'
p13
(tsS'anchors'
p14
(tsss."
AnchorPoint: "top" 346 1152 basechar 0
LayerCount: 2
Fore
SplineSet
107 -6 m 257
 107 -40 l 257
 212 -40 l 258
 313 -39 362 -20 362 161 c 258
 362 1118 l 257
 483 1118 l 257
 483 1152 l 257
 189 1152 l 257
 189 1118 l 257
 318 1118 l 257
 318 173 l 258
 318 42 307 -6 229 -6 c 258
 107 -6 l 257
EndSplineSet
EndChar

StartChar: K
Encoding: 75 75 82
Width: 1304
VWidth: 0
Flags: W
PickledData: "(dp1
S'org.robofab.postScriptHintData'
p2
(dp3
sS'com.typemytype.robofont.guides'
p4
((dp5
S'y'
I593
sS'x'
I467
sS'magnetic'
p6
I5
sS'angle'
p7
I0
sS'isGlobal'
p8
I0
stp9
sS'com.typemytype.robofont.layerData'
p10
(dp11
S'b'
(dp12
S'name'
p13
S'K'
sS'lib'
p14
(dp15
sS'unicodes'
p16
(tsS'width'
p17
I1304
sS'contours'
p18
(tsS'components'
p19
(tsS'anchors'
p20
(tsss."
AnchorPoint: "bot" 685 0 basechar 0
AnchorPoint: "top" 663 1152 basechar 0
LayerCount: 2
Fore
SplineSet
1052 34 m 257
 408 588 l 257
 1004 1118 l 257
 1179 1118 l 257
 1179 1152 l 257
 794 1152 l 257
 794 1118 l 257
 954 1118 l 257
 350 589.749 l 257
 350 1118 l 257
 526 1118 l 257
 526 1152 l 257
 130 1152 l 257
 130 1118 l 257
 306 1118 l 257
 306 34 l 257
 130 34 l 257
 130 0 l 257
 526 0 l 257
 526 34 l 257
 350 34 l 257
 350 586.293 l 257
 997 34 l 257
 840 34 l 257
 840 0 l 257
 1215 0 l 257
 1215 34 l 257
 1052 34 l 257
EndSplineSet
EndChar

StartChar: L
Encoding: 76 76 85
Width: 1055
VWidth: 0
Flags: W
PickledData: "(dp1
S'org.robofab.postScriptHintData'
p2
(dp3
sS'com.typemytype.robofont.layerData'
p4
(dp5
S'b'
(dp6
S'name'
p7
S'L'
sS'lib'
p8
(dp9
sS'unicodes'
p10
(tsS'width'
p11
I1055
sS'contours'
p12
(tsS'components'
p13
(tsS'anchors'
p14
(tsss."
AnchorPoint: "caron.alt" 510 804 basechar 0
AnchorPoint: "bot" 652 0 basechar 0
AnchorPoint: "top" 712 1152 basechar 0
LayerCount: 2
Fore
SplineSet
966 358 m 257
 966 34 l 257
 350 34 l 257
 350 1118 l 257
 526 1118 l 257
 526 1152 l 257
 130 1152 l 257
 130 1118 l 257
 306 1118 l 257
 306 34 l 257
 130 34 l 257
 130 0 l 257
 1002 0 l 257
 1002 358 l 257
 966 358 l 257
EndSplineSet
EndChar

StartChar: Lslash
Encoding: 321 321 91
Width: 1243
VWidth: 0
Flags: W
PickledData: "(dp1
S'org.robofab.postScriptHintData'
p2
(dp3
sS'com.typemytype.robofont.layerData'
p4
(dp5
S'b'
(dp6
S'name'
p7
S'Lslash'
p8
sS'lib'
p9
(dp10
sS'unicodes'
p11
(tsS'width'
p12
I1243
sS'contours'
p13
(tsS'components'
p14
(tsS'anchors'
p15
(tsss."
LayerCount: 2
Fore
SplineSet
124 434 m 257
 524 691 l 257
 524 742 l 257
 124 481 l 257
 124 434 l 257
EndSplineSet
Refer: 85 76 N 1 0 0 1 0 0 2
EndChar

StartChar: M
Encoding: 77 77 92
Width: 1606
VWidth: 0
Flags: W
PickledData: "(dp1
S'org.robofab.postScriptHintData'
p2
(dp3
sS'com.typemytype.robofont.layerData'
p4
(dp5
S'b'
(dp6
S'name'
p7
S'M'
sS'lib'
p8
(dp9
sS'unicodes'
p10
(tsS'width'
p11
I1606
sS'contours'
p12
(tsS'components'
p13
(tsS'anchors'
p14
(tsss."
AnchorPoint: "top" 795 1152 basechar 0
LayerCount: 2
Fore
SplineSet
146 34 m 257
 146 0 l 257
 499 0 l 257
 499 34 l 257
 343 34 l 257
 343 1058 l 257
 818 105 l 257
 822 105 l 257
 1270 1058 l 257
 1270 34 l 257
 1112 34 l 257
 1112 0 l 257
 1467 0 l 257
 1467 34 l 257
 1314 34 l 257
 1314 1118 l 257
 1467 1118 l 257
 1467 1152 l 257
 1267 1152 l 257
 819 190 l 257
 342 1152 l 257
 146 1152 l 257
 146 1118 l 257
 299 1118 l 257
 299 34 l 257
 146 34 l 257
EndSplineSet
EndChar

StartChar: N
Encoding: 78 78 94
Width: 1444
VWidth: 0
Flags: W
PickledData: "(dp1
S'org.robofab.postScriptHintData'
p2
(dp3
sS'com.typemytype.robofont.layerData'
p4
(dp5
S'b'
(dp6
S'name'
p7
S'N'
sS'lib'
p8
(dp9
sS'unicodes'
p10
(tsS'width'
p11
I1444
sS'contours'
p12
(tsS'components'
p13
(tsS'anchors'
p14
(tsss."
AnchorPoint: "bot" 711 0 basechar 0
AnchorPoint: "top" 721 1152 basechar 0
LayerCount: 2
Fore
SplineSet
140 34 m 257
 140 0 l 257
 477 0 l 257
 477 34 l 257
 328 34 l 257
 328 1073 l 257
 1194 0 l 257
 1238 0 l 257
 1238 1118 l 257
 1361 1118 l 257
 1361 1152 l 257
 1043 1152 l 257
 1043 1118 l 257
 1194 1118 l 257
 1194 63 l 257
 318 1152 l 257
 140 1152 l 257
 140 1118 l 257
 284 1118 l 257
 284 34 l 257
 140 34 l 257
EndSplineSet
EndChar

StartChar: O
Encoding: 79 79 102
Width: 1456
VWidth: 0
Flags: W
PickledData: "(dp1
S'org.robofab.postScriptHintData'
p2
(dp3
sS'com.typemytype.robofont.layerData'
p4
(dp5
S'b'
(dp6
S'name'
p7
S'O'
sS'lib'
p8
(dp9
sS'unicodes'
p10
(tsS'width'
p11
I1456
sS'contours'
p12
(tsS'components'
p13
(tsS'anchors'
p14
(tsss."
AnchorPoint: "ogonek" 792 0 basechar 0
AnchorPoint: "top" 727 1152 basechar 0
LayerCount: 2
Fore
SplineSet
728 -22 m 256
 1147 -22 1328 289 1328 572 c 256
 1328 851 1144 1174 728 1174 c 256
 313 1174 128 852 128 572 c 256
 128 291 309 -23 728 -22 c 256
728 14 m 256
 337 14 170 300 170 572 c 256
 170 832 341 1138 728 1138 c 256
 1110 1138 1286 832 1286 572 c 256
 1286 310 1110 14 728 14 c 256
EndSplineSet
Substitution2: "Single Substitution lookup 14 subtable" ordmasculine
EndChar

StartChar: OE
Encoding: 338 338 103
Width: 1953
VWidth: 0
Flags: W
PickledData: "(dp1
S'org.robofab.postScriptHintData'
p2
(dp3
sS'com.typemytype.robofont.layerData'
p4
(dp5
S'b'
(dp6
S'name'
p7
S'OE'
p8
sS'lib'
p9
(dp10
sS'unicodes'
p11
(tsS'width'
p12
I1953
sS'contours'
p13
(tsS'components'
p14
(tsS'anchors'
p15
(tsss."
LayerCount: 2
Fore
SplineSet
783 0 m 258
 1813 0 l 257
 1813 395 l 257
 1773 395 l 257
 1773 40 l 257
 1041 40 l 257
 1041 542 l 257
 1530 542 l 257
 1530 343 l 257
 1570 343 l 257
 1570 759 l 257
 1530 759 l 257
 1530 580 l 257
 1042 580 l 257
 1042 1112 l 257
 1743 1112 l 257
 1743 782 l 257
 1783 782 l 257
 1783 1152 l 257
 783 1152 l 258
 375 1152 129 935 128 570 c 256
 129 212 375 0 783 0 c 258
783 40 m 258
 403 40 170 240 170 570 c 256
 170 913 408 1112 783 1112 c 258
 998 1112 l 257
 998 40 l 257
 783 40 l 258
EndSplineSet
EndChar

StartChar: Omega
Encoding: 937 937 115
Width: 1426
VWidth: 0
Flags: W
PickledData: "(dp1
S'org.robofab.postScriptHintData'
p2
(dp3
s."
LayerCount: 2
Fore
SplineSet
191 0 m 257
 548 0 l 257
 548 38 l 257
 324 177 213 420 213 636 c 256
 213 901 380 1139 713 1139 c 256
 1046 1139 1213 901 1213 636 c 256
 1213 420 1102 177 878 38 c 257
 878 0 l 257
 1235 0 l 257
 1235 34 l 257
 915 34 l 257
 1143 168 1254 409 1254 629 c 256
 1254 913 1070 1174 713 1174 c 256
 356 1174 172 913 172 629 c 256
 172 409 283 168 511 34 c 257
 191 34 l 257
 191 0 l 257
EndSplineSet
EndChar

StartChar: Oslash
Encoding: 216 216 117
Width: 1598
VWidth: 0
Flags: W
PickledData: "(dp1
S'org.robofab.postScriptHintData'
p2
(dp3
sS'com.typemytype.robofont.layerData'
p4
(dp5
S'b'
(dp6
S'name'
p7
S'Oslash'
p8
sS'lib'
p9
(dp10
sS'unicodes'
p11
(tsS'width'
p12
I1598
sS'contours'
p13
(tsS'components'
p14
(tsS'anchors'
p15
(tsss."
LayerCount: 2
Fore
SplineSet
266 -71 m 257
 1239 1195 l 257
 1215 1213 l 257
 239 -51 l 257
 266 -71 l 257
EndSplineSet
Refer: 102 79 N 1 0 0 1 8 -10 2
EndChar

StartChar: P
Encoding: 80 80 120
Width: 1226
VWidth: 0
Flags: W
PickledData: "(dp1
S'org.robofab.postScriptHintData'
p2
(dp3
sS'com.typemytype.robofont.layerData'
p4
(dp5
S'b'
(dp6
S'name'
p7
S'P'
sS'lib'
p8
(dp9
sS'unicodes'
p10
(tsS'width'
p11
I1226
sS'contours'
p12
((dp13
S'points'
p14
((dp15
S'segmentType'
p16
S'line'
p17
sS'x'
I353
sS'smooth'
p18
I0
sS'y'
I1095
s(dp19
g16
S'line'
p20
sS'x'
I759
sg18
I1
sS'y'
I1095
s(dp21
S'y'
I1095
sS'x'
I936
sg18
I0
s(dp22
S'y'
I960
sS'x'
I1024
sg18
I0
s(dp23
g16
S'curve'
p24
sS'x'
I1024
sg18
I1
sS'y'
I823
s(dp25
S'y'
I683
sS'x'
I1024
sg18
I0
s(dp26
S'y'
I544
sS'x'
I934
sg18
I0
s(dp27
g16
S'curve'
p28
sS'x'
I759
sg18
I1
sS'y'
I544
s(dp29
g16
S'line'
p30
sS'x'
I353
sg18
I0
sS'y'
I544
stp31
s(dp32
g14
((dp33
g16
S'line'
p34
sS'x'
I135
sg18
I0
sS'y'
I0
s(dp35
g16
S'line'
p36
sS'x'
I512
sg18
I0
sS'y'
I0
s(dp37
g16
S'line'
p38
sS'x'
I512
sg18
I0
sS'y'
I58
s(dp39
g16
S'line'
p40
sS'x'
I353
sg18
I0
sS'y'
I58
s(dp41
g16
S'line'
p42
sS'x'
I353
sg18
I0
sS'y'
I483
s(dp43
g16
S'line'
p44
sS'x'
I759
sg18
I1
sS'y'
I483
s(dp45
S'y'
I483
sS'x'
I984
sg18
I0
s(dp46
S'y'
I656
sS'x'
I1098
sg18
I0
s(dp47
g16
S'curve'
p48
sS'x'
I1098
sg18
I1
sS'y'
I826
s(dp49
S'y'
I989
sS'x'
I1098
sg18
I0
s(dp50
S'y'
I1154
sS'x'
I984
sg18
I0
s(dp51
g16
S'curve'
p52
sS'x'
I759
sg18
I1
sS'y'
I1154
s(dp53
g16
S'line'
p54
sS'x'
I122
sg18
I0
sS'y'
I1154
s(dp55
g16
S'line'
p56
sS'x'
I122
sg18
I0
sS'y'
I1095
s(dp57
g16
S'line'
p58
sS'x'
I278
sg18
I0
sS'y'
I1095
s(dp59
g16
S'line'
p60
sS'x'
I278
sg18
I0
sS'y'
I58
s(dp61
g16
S'line'
p62
sS'x'
I135
sg18
I0
sS'y'
I58
stp63
stp64
sS'components'
p65
(tsS'anchors'
p66
(tsss."
AnchorPoint: "top" 680 1152 basechar 0
LayerCount: 2
Fore
SplineSet
130 1152 m 257
 130 1118 l 257
 306 1118 l 257
 306 34 l 257
 130 34 l 257
 130 0 l 257
 526 0 l 257
 526 34 l 257
 350 34 l 257
 350 1118 l 257
 753 1118 l 258
 927 1118 1030 1019 1031 851 c 256
 1032 652 934 534 767 534 c 258
 449 534 l 257
 448 500 l 257
 766 500 l 258
 960 500 1075 631 1075 852 c 256
 1075 1041 956 1152 754 1152 c 258
 130 1152 l 257
EndSplineSet
EndChar

StartChar: Q
Encoding: 81 81 122
Width: 1438
VWidth: 0
Flags: W
PickledData: "(dp1
S'org.robofab.postScriptHintData'
p2
(dp3
sS'com.typemytype.robofont.layerData'
p4
(dp5
S'b'
(dp6
S'name'
p7
S'Q'
sS'lib'
p8
(dp9
sS'unicodes'
p10
(tsS'width'
p11
I1438
sS'contours'
p12
(tsS'components'
p13
(tsS'anchors'
p14
(tsss."
AnchorPoint: "ogonek" 792 0 basechar 0
AnchorPoint: "top" 727 1152 basechar 0
LayerCount: 2
Fore
SplineSet
728 1174 m 256
 313 1174 128 852 128 572 c 256
 128 293.328 306.014 -17.7985 717.635 -21.9595 c 257
 897.156 -162.201 955.417 -242.444 1154 -174 c 257
 1143 -146 l 257
 970.205 -203.28 912.245 -138.433 767.262 -21.0661 c 257
 1158.33 -2.24259 1328 298.002 1328 572 c 256
 1328 851 1144 1174 728 1174 c 256
170 572 m 256
 170 832 341 1138 728 1138 c 256
 1110 1138 1286 832 1286 572 c 256
 1286 310 1110 14.0001 728 14.0001 c 256
 337 14.0001 170 300 170 572 c 256
EndSplineSet
EndChar

StartChar: R
Encoding: 82 82 123
Width: 1296
VWidth: 0
Flags: W
PickledData: "(dp1
S'org.robofab.postScriptHintData'
p2
(dp3
sS'com.typemytype.robofont.layerData'
p4
(dp5
S'b'
(dp6
S'name'
p7
S'R'
sS'lib'
p8
(dp9
sS'unicodes'
p10
(tsS'width'
p11
I1296
sS'contours'
p12
((dp13
S'points'
p14
((dp15
S'segmentType'
p16
S'line'
p17
sS'x'
I135
sS'smooth'
p18
I0
sS'y'
I0
s(dp19
g16
S'line'
p20
sS'x'
I512
sg18
I0
sS'y'
I0
s(dp21
g16
S'line'
p22
sS'x'
I512
sg18
I0
sS'y'
I58
s(dp23
g16
S'line'
p24
sS'x'
I353
sg18
I0
sS'y'
I58
s(dp25
g16
S'line'
p26
sS'x'
I353
sg18
I0
sS'y'
I539
s(dp27
g16
S'line'
p28
sS'x'
I641
sg18
I0
sS'y'
I539
s(dp29
g16
S'line'
p30
sS'x'
I961
sg18
I0
sS'y'
I0
s(dp31
g16
S'line'
p32
sS'x'
I1178
sg18
I0
sS'y'
I0
s(dp33
g16
S'line'
p34
sS'x'
I1178
sg18
I0
sS'y'
I58
s(dp35
g16
S'line'
p36
sS'x'
I1015
sg18
I0
sS'y'
I58
s(dp37
g16
S'line'
p38
sS'x'
I721
sg18
I0
sS'y'
I539
s(dp39
S'y'
I539
sS'x'
I945
sg18
I0
s(dp40
S'y'
I696
sS'x'
I1059
sg18
I0
s(dp41
g16
S'curve'
p42
sS'x'
I1059
sg18
I1
sS'y'
I848
s(dp43
S'y'
I1000
sS'x'
I1059
sg18
I0
s(dp44
S'y'
I1154
sS'x'
I945
sg18
I0
s(dp45
g16
S'curve'
p46
sS'x'
I721
sg18
I1
sS'y'
I1154
s(dp47
g16
S'line'
p48
sS'x'
I122
sg18
I0
sS'y'
I1154
s(dp49
g16
S'line'
p50
sS'x'
I122
sg18
I0
sS'y'
I1095
s(dp51
g16
S'line'
p52
sS'x'
I278
sg18
I0
sS'y'
I1095
s(dp53
g16
S'line'
p54
sS'x'
I278
sg18
I0
sS'y'
I58
s(dp55
g16
S'line'
p56
sS'x'
I135
sg18
I0
sS'y'
I58
stp57
s(dp58
g14
((dp59
g16
S'line'
p60
sS'x'
I353
sg18
I0
sS'y'
I1095
s(dp61
g16
S'line'
p62
sS'x'
I721
sg18
I1
sS'y'
I1095
s(dp63
S'y'
I1095
sS'x'
I898
sg18
I0
s(dp64
S'y'
I971
sS'x'
I985
sg18
I0
s(dp65
g16
S'curve'
p66
sS'x'
I985
sg18
I1
sS'y'
I845
s(dp67
S'y'
I723
sS'x'
I985
sg18
I0
s(dp68
S'y'
I600
sS'x'
I896
sg18
I0
s(dp69
g16
S'curve'
p70
sS'x'
I721
sg18
I1
sS'y'
I600
s(dp71
g16
S'line'
p72
sS'x'
I353
sg18
I0
sS'y'
I600
stp73
stp74
sS'components'
p75
(tsS'anchors'
p76
(tsss."
AnchorPoint: "bot" 719 0 basechar 0
AnchorPoint: "top" 658 1152 basechar 0
LayerCount: 2
Fore
SplineSet
1029 34 m 257
 711 539 l 257
 996 539 1078 698 1078 845 c 256
 1078 988 995 1152 759 1152 c 258
 130 1152 l 257
 130 1118 l 257
 306 1118 l 257
 306 34 l 257
 130 34 l 257
 130 0 l 257
 526 0 l 257
 526 34 l 257
 350 34 l 257
 350 1118 l 257
 764 1118 l 258
 971 1118 1036 973 1036 845 c 256
 1036 727 978 573 702 573 c 258
 419 573 l 257
 419 539 l 257
 661 539 l 257
 1000 0 l 257
 1198 0 l 257
 1198 34 l 257
 1029 34 l 257
EndSplineSet
EndChar

StartChar: S
Encoding: 83 83 129
Width: 1143
VWidth: 0
Flags: W
PickledData: "(dp1
S'org.robofab.postScriptHintData'
p2
(dp3
sS'com.typemytype.robofont.layerData'
p4
(dp5
S'b'
(dp6
S'name'
p7
S'S'
sS'lib'
p8
(dp9
sS'unicodes'
p10
(tsS'width'
p11
I1143
sS'contours'
p12
((dp13
S'points'
p14
((dp15
S'segmentType'
p16
S'curve'
p17
sS'x'
I636
sS'smooth'
p18
I1
sS'y'
S'-23'
p19
s(dp20
S'y'
S'-23'
p21
sS'x'
I930
sg18
I0
s(dp22
S'y'
I171
sS'x'
I1026
sg18
I0
s(dp23
g16
S'curve'
p24
sS'x'
I1026
sg18
I1
sS'y'
I295
s(dp25
S'y'
I543
sS'x'
I1026
sg18
I0
s(dp26
S'y'
I599
sS'x'
I829
sg18
I0
s(dp27
g16
S'curve'
p28
sS'x'
I606
sg18
I1
sS'y'
I622
s(dp29
S'y'
I643
sS'x'
I405
sg18
I0
s(dp30
S'y'
I667
sS'x'
I269
sg18
I0
s(dp31
g16
S'curve'
p32
sS'x'
I269
sg18
I1
sS'y'
I851
s(dp33
S'y'
I998
sS'x'
I269
sg18
I0
s(dp34
S'y'
I1104
sS'x'
I360
sg18
I0
s(dp35
g16
S'curve'
p36
sS'x'
I573
sg18
I1
sS'y'
I1104
s(dp37
S'y'
I1104
sS'x'
I719
sg18
I0
s(dp38
S'y'
I1024
sS'x'
I885
sg18
I0
s(dp39
g16
S'curve'
p40
sS'x'
I885
sg18
I1
sS'y'
I941
s(dp41
g16
S'line'
p42
sS'x'
I885
sg18
I0
sS'y'
I839
s(dp43
g16
S'line'
p44
sS'x'
I959
sg18
I0
sS'y'
I839
s(dp45
g16
S'line'
p46
sS'x'
I959
sg18
I0
sS'y'
I1152
s(dp47
g16
S'line'
p48
sS'x'
I885
sg18
I0
sS'y'
I1152
s(dp49
g16
S'line'
p50
sS'x'
I885
sg18
I0
sS'y'
I1049
s(dp51
S'y'
I1131
sS'x'
I828
sg18
I0
s(dp52
S'y'
I1172
sS'x'
I673
sg18
I0
s(dp53
g16
S'curve'
p54
sS'x'
I561
sg18
I1
sS'y'
I1172
s(dp55
S'y'
I1172
sS'x'
I360
sg18
I0
s(dp56
S'y'
I1066
sS'x'
I184
sg18
I0
s(dp57
g16
S'curve'
p58
sS'x'
I184
sg18
I1
sS'y'
I863
s(dp59
S'y'
I635
sS'x'
I184
sg18
I0
s(dp60
S'y'
I579
sS'x'
I332
sg18
I0
s(dp61
g16
S'curve'
p62
sS'x'
I584
sg18
I1
sS'y'
I553
s(dp63
S'y'
I531
sS'x'
I805
sg18
I0
s(dp64
S'y'
I488
sS'x'
I942
sg18
I0
s(dp65
g16
S'curve'
p66
sS'x'
I942
sg18
I1
sS'y'
I300
s(dp67
S'y'
I169
sS'x'
I942
sg18
I0
s(dp68
S'y'
I47
sS'x'
I831
sg18
I0
s(dp69
g16
S'curve'
p70
sS'x'
I644
sg18
I1
sS'y'
I47
s(dp71
S'y'
I47
sS'x'
I448
sg18
I0
s(dp72
S'y'
I118
sS'x'
I261
sg18
I0
s(dp73
g16
S'curve'
p74
sS'x'
I261
sg18
I1
sS'y'
I247
s(dp75
g16
S'line'
p76
sS'x'
I261
sg18
I0
sS'y'
I387
s(dp77
g16
S'line'
p78
sS'x'
I187
sg18
I0
sS'y'
I387
s(dp79
g16
S'line'
p80
sS'x'
I187
sg18
I0
sS'y'
S'-1'
p81
s(dp82
g16
S'line'
p83
sS'x'
I261
sg18
I0
sS'y'
S'-1'
p84
s(dp85
g16
S'line'
p86
sS'x'
I261
sg18
I0
sS'y'
I122
s(dp87
S'y'
I22
sS'x'
I335
sg18
I0
s(dp88
S'y'
S'-23'
p89
sS'x'
I496
sg18
I0
stp90
stp91
sS'components'
p92
(tsS'anchors'
p93
(tsss."
AnchorPoint: "bot" 646 0 basechar 0
AnchorPoint: "top" 584 1152 basechar 0
LayerCount: 2
Fore
SplineSet
641 -22 m 256
 985 -22 1030 197 1030 292 c 256
 1030 562 831 578 614 598 c 256
 410 617 222 638 222 856 c 256
 222 1011 325 1138 577 1138 c 256
 779 1138 918 1044 918 958 c 258
 917 847 l 257
 961 847 l 257
 961 1152 l 257
 917 1152 l 257
 917 1037 l 257
 868 1127 690 1174 573 1174 c 256
 357 1174 180 1074 180 859 c 256
 180 599 402 576 609 560 c 256
 836 542 988 512 988 300 c 256
 988 158 906 14 644 14 c 256
 390 14 266 80 225 231 c 257
 225 387 l 257
 181 387 l 257
 181 -1 l 257
 225 -1 l 257
 225 153 l 257
 276 24 434 -22 641 -22 c 256
EndSplineSet
EndChar

StartChar: Sigma
Encoding: 931 931 137
Width: 838
VWidth: 0
Flags: W
PickledData: "(dp1
S'org.robofab.postScriptHintData'
p2
(dp3
s."
LayerCount: 2
Fore
SplineSet
122 0 m 257
 811 0 l 257
 811 34 l 257
 177 34 l 257
 599 569 l 257
 193 1118 l 257
 777 1118 l 257
 777 1152 l 257
 139 1152 l 257
 139 1124 l 257
 549 569 l 257
 122 31 l 257
 122 0 l 257
EndSplineSet
EndChar

StartChar: T
Encoding: 84 84 138
Width: 1147
VWidth: 0
Flags: W
PickledData: "(dp1
S'org.robofab.postScriptHintData'
p2
(dp3
sS'com.typemytype.robofont.layerData'
p4
(dp5
S'b'
(dp6
S'name'
p7
S'T'
sS'lib'
p8
(dp9
sS'unicodes'
p10
(tsS'width'
p11
I1147
sS'contours'
p12
(tsS'components'
p13
(tsS'anchors'
p14
(tsss."
AnchorPoint: "mid" 567 612 basechar 0
AnchorPoint: "bot" 563 0 basechar 0
AnchorPoint: "top" 566 1152 basechar 0
LayerCount: 2
Fore
SplineSet
52 1152 m 257
 52 777 l 257
 92 777 l 257
 92 1118 l 257
 543 1118 l 257
 543 34 l 257
 367 34 l 257
 367 0 l 257
 763 0 l 257
 763 34 l 257
 587 34 l 257
 587 1118 l 257
 1053 1118 l 257
 1053 777 l 257
 1097 777 l 257
 1097 1152 l 257
 52 1152 l 257
EndSplineSet
EndChar
